<?xml version="1.0" encoding="utf-8"?>
<!-- Generator: Adobe Illustrator 26.0.0, SVG Export Plug-In . SVG Version: 6.00 Build 0)  -->
<svg version="1.1" id="Layer_1" xmlns="http://www.w3.org/2000/svg" xmlns:xlink="http://www.w3.org/1999/xlink" x="0px" y="0px"
	 viewBox="0 0 120 120" style="enable-background:new 0 0 120 120;" xml:space="preserve">
<style type="text/css">
	.st0{fill:#F37360;}
	.st1{fill:none;stroke:#FFFFFF;stroke-width:5;stroke-linecap:round;stroke-linejoin:round;stroke-miterlimit:10;}
</style>
<circle class="st0" cx="60" cy="60" r="60"/>
<g>
	<line class="st1" x1="21.1713" y1="54.5397" x2="98.2268" y2="54.5397"/>
	<line class="st1" x1="14.75" y1="39.1286" x2="104.648" y2="39.1286"/>
	<line class="st1" x1="30.1611" y1="69.9508" x2="91.8055" y2="69.9508"/>
	<line class="st1" x1="91.7035" y1="69.9075" x2="104.75" y2="39.1719"/>
	<line class="st1" x1="62.8077" y1="69.9075" x2="75.8542" y2="39.1719"/>
	<line class="st1" x1="77.2556" y1="69.9075" x2="90.3021" y2="39.1719"/>
	<line class="st1" x1="48.3598" y1="69.9075" x2="61.4063" y2="39.1719"/>
	<path class="st1" d="M28.2347,28.373h10.9162c3.2804,0,5.9397,2.6593,5.9397,5.9397l-4.816,40.4541
		c0,3.2804,2.6593,5.9397,5.9397,5.9397"/>
	<line class="st1" x1="46.2143" y1="80.7065" x2="87.1196" y2="80.7065"/>
	<path class="st1" d="M95.8869,60.052"/>
	
		<ellipse transform="matrix(0.7759 -0.6309 0.6309 0.7759 -49.7181 49.5827)" class="st1" cx="44.9301" cy="94.771" rx="6.9814" ry="5.9061"/>
	
		<ellipse transform="matrix(0.7759 -0.6309 0.6309 0.7759 -42.0913 71.0526)" class="st1" cx="78.9629" cy="94.771" rx="6.9814" ry="5.9061"/>
</g>
</svg>
