<?xml version="1.0" encoding="utf-8"?>
<!-- Generator: Adobe Illustrator 26.0.0, SVG Export Plug-In . SVG Version: 6.00 Build 0)  -->
<svg version="1.1" id="Layer_1" xmlns="http://www.w3.org/2000/svg" xmlns:xlink="http://www.w3.org/1999/xlink" x="0px" y="0px"
	 viewBox="0 0 500 500" style="enable-background:new 0 0 500 500;" xml:space="preserve">
<style type="text/css">
	.st0{fill:#F5F5F5;}
	.st1{fill:#E0E0E0;}
	.st2{fill:#455A64;}
	.st3{fill:#37474F;}
	.st4{fill:#FF725E;}
	.st5{fill:#263238;}
	.st6{opacity:0.8;fill:#FFFFFF;enable-background:new    ;}
	.st7{opacity:0.15;enable-background:new    ;}
	.st8{opacity:0.3;enable-background:new    ;}
	.st9{opacity:0.5;enable-background:new    ;}
	.st10{opacity:0.35;enable-background:new    ;}
	.st11{opacity:0.23;enable-background:new    ;}
	.st12{opacity:0.15;}
	.st13{opacity:0.4;enable-background:new    ;}
	.st14{fill:#FFA8A7;}
	.st15{opacity:0.45;enable-background:new    ;}
	.st16{fill:#F28F8F;}
	.st17{fill:#FAFAFA;}
	.st18{fill:#B16668;}
</style>
<g id="Floor--inject-16">
	<ellipse id="floor--inject-16" class="st0" cx="249.8" cy="337.5" rx="238.2" ry="137.5"/>
</g>
<g id="Shadows--inject-16">
	<path id="Shadow--inject-16" class="st1" d="M421.5,361.9c0-0.1-0.1-0.2-0.1-0.3c0-0.1-0.1-0.1-0.1-0.2
		c0-0.1-0.1-0.1-0.1-0.2l-0.2-0.2c-0.2-0.2-0.4-0.3-0.6-0.5L197.6,232.1c-2.3-1.1-4.9-1.1-7.2,0L74.5,298.9
		c-0.1,0.1-0.3,0.2-0.4,0.3c0,0-0.1,0.1-0.2,0.1c-0.2,0.2-0.4,0.4-0.6,0.7c0,0.1-0.1,0.1-0.1,0.2c-0.1,0.1-0.1,0.2-0.1,0.3
		c0,0.1,0,0.1-0.1,0.2c0,0.1,0,0.2,0,0.4c0,0.1,0,0.2,0,0.2c0,0.1,0,0.2,0.1,0.3c0,0.1,0.1,0.2,0.1,0.3c0.3,0.5,0.7,1,1.2,1.2
		l222.7,128.5c0.7,0.4,1.4,0.6,2.1,0.7c0.5,0.1,1,0.1,1.5,0.1c0.5,0,1,0,1.4-0.1c0.2,0,0.3,0,0.5-0.1c0.4-0.1,0.9-0.3,1.3-0.4
		c0.1-0.1,0.3-0.1,0.4-0.2l115.9-66.7C421.6,364.1,422,362.9,421.5,361.9z"/>
	<ellipse id="shadow--inject-16" class="st1" cx="407.3" cy="298.9" rx="49.5" ry="28.6"/>
</g>
<g id="Device--inject-16">
	<g id="device--inject-16">
		<g id="Mobile--inject-16">
			<path class="st2" d="M411.9,347.2c0-0.1-0.1-0.2-0.2-0.3c0-0.1-0.1-0.1-0.1-0.2c0-0.1-0.1-0.1-0.2-0.2l-0.2-0.2
				c-0.2-0.2-0.4-0.3-0.6-0.5L194,220.9c-2.3-1.1-4.9-1.1-7.2,0L80.6,282.2l-0.4,0.3l-0.1,0.1c-0.2,0.2-0.4,0.4-0.6,0.7
				c-0.1,0.1-0.2,0.3-0.2,0.5c0,0.1,0,0.1,0,0.2c0,0.1,0,0.2,0,0.4c0,0.1,0,0.2,0,0.2c0,0.1,0,0.2,0.1,0.3c0,0.1,0.1,0.2,0.1,0.3
				c0.3,0.5,0.7,1,1.3,1.2l216.6,125.1c0.7,0.4,1.4,0.6,2.1,0.7c0.5,0.1,1,0.1,1.5,0.1c0.5,0,1,0,1.4-0.1c0.2,0,0.3,0,0.5-0.1
				c0.4-0.1,0.9-0.2,1.3-0.4c0.1-0.1,0.3-0.1,0.4-0.2l106.2-61.3C412,349.3,412.4,348.2,411.9,347.2z M388.5,342.8l-6.8,3.9
				l-90.5,52.2c-0.2,0.1-0.5,0.3-0.7,0.4c-1.5,0.6-3.2,0.6-4.7,0c-0.3-0.1-0.5-0.2-0.7-0.4l-171.8-99.2l-8.3-4.8
				c-0.3-0.2-0.6-0.4-0.8-0.6c-0.9-0.9-0.6-2.1,0.8-2.9l97.2-56.1c1.1-0.8,2.4-1.1,3.8-1.1c0.3,0,0.6,0.1,0.9,0.2
				c0.2,0.1,0.3,0.1,0.5,0.2l181.1,104.6c1,0.6,1.3,1.8,0.7,2.8C389.1,342.3,388.8,342.6,388.5,342.8z"/>
			<path class="st3" d="M80.2,282.5c-1.9,1.4-3,3.6-3.2,6v4.7c0.1,2.5,1.5,4.8,3.6,6.2l216.6,125.1c0.8,0.4,1.7,0.7,2.6,0.8
				c0.3,0,0.6,0,1,0.1l0,0v-13.1l0,0c-0.5,0-1,0-1.5-0.1c-0.8-0.1-1.5-0.4-2.1-0.7L80.6,286.4C78.8,285.3,78.6,283.6,80.2,282.5z"/>
			<path class="st4" d="M354.5,372.7c-4-2-8.8-2-12.8,0c-0.8,0.4-1.4,1-1.9,1.8c-1.1,2,1,3.5,1.9,4.1c4,2,8.8,2,12.8,0
				c0.8-0.4,1.4-1,1.9-1.8C357.6,374.7,355.4,373.2,354.5,372.7z"/>
			<path class="st5" d="M142.4,257.2c0.6-0.2,0.8-0.8,0.6-1.4c-0.1-0.3-0.3-0.5-0.6-0.6c-1.1-0.6-2.4-0.6-3.5,0
				c-0.6,0.2-0.8,0.8-0.6,1.4c0.1,0.3,0.3,0.5,0.6,0.6C140,257.7,141.3,257.7,142.4,257.2z"/>
			<path class="st5" d="M136.9,266.8c0.5-0.2,0.7-0.8,0.5-1.3c-0.1-0.2-0.3-0.4-0.5-0.5c-1-0.5-2.1-0.5-3.1,0
				c-0.5,0.2-0.7,0.8-0.5,1.3c0.1,0.2,0.3,0.4,0.5,0.5C134.7,267.3,135.9,267.3,136.9,266.8z"/>
			<path class="st5" d="M142.1,263.8l17.4-10.1c1-0.6,1-1.4,0.1-1.9c-1.1-0.5-2.3-0.5-3.4,0.1l-17.4,10.1c-0.9,0.6-1,1.4-0.1,1.9
				C139.8,264.4,141.1,264.4,142.1,263.8z"/>
			<path class="st5" d="M411.1,346.3c1.5,1.1,1.3,2.8-0.5,3.8l-106.2,61.3c-1.1,0.6-2.3,0.9-3.6,0.9v13c1.2,0,2.5-0.3,3.6-0.9
				l106.2-61.3c2.1-1.4,3.5-3.7,3.6-6.2v-4.8C414,349.9,412.9,347.7,411.1,346.3z"/>
			<path class="st2" d="M131.2,319.3c1.1,0.7,1.8,1.8,1.9,3.1c0,0.4-0.2,0.8-0.5,1.1c-0.2,0.1-1.1,0.6-1.3,0.8
				c-0.4,0.2-1,0.1-1.3-0.1l-24.2-14c-1.1-0.7-1.8-1.8-1.8-3.1c0-0.4,0.1-0.8,0.5-1.1l1.3-0.8c0.4-0.2,1-0.1,1.3,0.1L131.2,319.3z"
				/>
			<path class="st5" d="M129.9,320l-24.2-13.9c-1-0.6-1.8-0.2-1.8,0.9c0.1,1.3,0.8,2.4,1.8,3.1l24.2,14c1,0.6,1.9,0.2,1.9-0.9
				C131.7,321.9,131,320.7,129.9,320z"/>
			<path class="st2" d="M98.9,300.6c1.1,0.7,1.8,1.8,1.9,3.1c0,0.4-0.2,0.8-0.5,1.1c-0.2,0.1-1.1,0.6-1.3,0.8
				c-0.4,0.2-1,0.1-1.3-0.2l-11.4-6.6c-1.1-0.7-1.8-1.8-1.8-3.1c0-0.4,0.1-0.8,0.5-1.1c0.2-0.1,1.1-0.6,1.3-0.8
				c0.4-0.2,1-0.1,1.3,0.1L98.9,300.6z"/>
			<path class="st5" d="M97.6,301.4l-11.4-6.6c-1-0.6-1.8-0.2-1.8,0.9c0.1,1.3,0.8,2.4,1.8,3.1l11.4,6.6c1,0.6,1.8,0.2,1.8-0.9
				C99.4,303.2,98.7,302,97.6,301.4z"/>
		</g>
		<g id="Window--inject-16">
			<path class="st4" d="M388.5,342.7l-6.8,3.9l-90.5,52.2c-0.2,0.1-0.5,0.3-0.7,0.4c-1.5,0.6-3.2,0.6-4.7,0
				c-0.3-0.1-0.5-0.2-0.7-0.4l-171.8-99.2l-8.3-4.8c-0.3-0.2-0.6-0.4-0.8-0.6c-0.9-0.9-0.6-2.1,0.8-3l97.2-56.1
				c1.1-0.7,2.4-1.1,3.8-1c0.3,0,0.6,0.1,0.9,0.2c0.2,0.1,0.3,0.1,0.5,0.2l181.1,104.6c1,0.6,1.3,1.9,0.7,2.8
				C389,342.3,388.8,342.5,388.5,342.7z"/>
			<path class="st6" d="M388.5,342.7l-6.8,3.9l-90.5,52.2c-0.2,0.1-0.5,0.3-0.7,0.4c-1.5,0.6-3.2,0.6-4.7,0
				c-0.3-0.1-0.5-0.2-0.7-0.4l-171.8-99.2l-8.3-4.8c-0.3-0.2-0.6-0.4-0.8-0.6c-0.9-0.9-0.6-2.1,0.8-3l97.2-56.1
				c1.1-0.7,2.4-1.1,3.8-1c0.3,0,0.6,0.1,0.9,0.2c0.2,0.1,0.3,0.1,0.5,0.2l181.1,104.6c1,0.6,1.3,1.9,0.7,2.8
				C389,342.3,388.8,342.5,388.5,342.7z"/>
			<path class="st2" d="M125.5,287.5c0,0-0.1,0-0.1,0l-0.5-0.3l-1.2,0.7c-0.1,0-0.1,0-0.2,0l-0.2-0.1l-0.1-0.1c0,0,0,0,0-0.1
				l-0.5-1.7c0,0,0,0,0-0.1c0,0,0,0,0.1-0.1l0.2-0.1c0,0,0.1,0,0.2,0c0.1,0,0.1,0,0.2,0l1.7,1l0.3-0.1c0,0,0.1,0,0.1,0
				c0.1,0,0.1,0,0.2,0l0.1,0.1c0.1,0,0.1,0.1,0.1,0.1s0,0-0.1,0.1l-0.2,0.1l0.5,0.3c0,0,0.1,0,0.1,0.1c0,0,0,0-0.1,0.1l-0.2,0.1
				C125.7,287.6,125.6,287.6,125.5,287.5z M124.5,286.9l-1.2-0.7l0.3,1.2L124.5,286.9z"/>
			<path class="st2" d="M126.6,286.5c-0.5,0-1-0.2-1.4-0.4c-0.5-0.3-0.7-0.5-0.8-0.8s0.2-0.5,0.6-0.8c0.2-0.1,0.3-0.2,0.5-0.2
				c0.2-0.1,0.4-0.1,0.5-0.1c0,0,0.1,0,0.1,0s0,0,0,0l0.1,0.2l0,0h-0.1c-0.3,0-0.5,0.1-0.8,0.2c-0.3,0.2-0.4,0.3-0.4,0.5
				s0.2,0.4,0.6,0.6c0.3,0.2,0.6,0.3,1,0.4c0.3,0,0.6-0.1,0.9-0.2l0.3-0.2c0.1,0,0.1-0.1,0.2-0.2l-0.8-0.5l-0.5,0.3c0,0-0.1,0-0.1,0
				c-0.1,0-0.1,0-0.1,0l-0.1-0.1c0,0-0.1-0.1-0.1-0.1s0,0,0.1-0.1l0.8-0.4c0.1,0,0.1,0,0.2,0c0.1,0,0.1,0,0.2,0.1l1.1,0.6
				c0,0,0.1,0,0.1,0.1c0,0,0,0,0,0.1c-0.1,0.3-0.4,0.5-0.7,0.7C127.5,286.4,127.1,286.5,126.6,286.5z"/>
			<path class="st2" d="M136.1,280.9c0.4,0.2,0.4,0.6,0,0.8c-0.4,0.2-0.9,0.2-1.3,0c-0.4-0.2-0.4-0.5,0-0.8
				C135.2,280.6,135.7,280.6,136.1,280.9z"/>
			<path class="st2" d="M133.7,280.2c-0.7,0.4-0.9,1-0.6,1.4c0.1,0.1,0.2,0.2,0.4,0.1l0,0c0.2,0,0.4-0.1,0.3-0.3
				c-0.2-0.4,0-0.7,0.4-1c0.5-0.3,1.2-0.4,1.8-0.2c0.2,0,0.4,0,0.5-0.2l0,0c0-0.1-0.1-0.2-0.3-0.2
				C135.3,279.7,134.5,279.8,133.7,280.2z"/>
			<path class="st2" d="M132.6,279.6c-1,0.6-1.4,1.4-1.1,2.1c0,0.1,0.2,0.2,0.4,0.2l0,0c0.2,0,0.4-0.1,0.3-0.3
				c-0.2-0.6,0.1-1.3,0.9-1.7c0.9-0.5,2-0.7,3-0.5c0.2,0,0.4,0,0.4-0.2l0,0c0-0.1-0.1-0.2-0.3-0.2C135,278.8,133.8,279,132.6,279.6z
				"/>
			<path class="st2" d="M152.3,270.1c0,0-0.1,0-0.1,0c0,0,0,0,0-0.1l0.2-1c0,0,0,0,0-0.1l0.1-0.1l0.4-0.2c0,0,0.1,0,0.1,0
				c0,0,0.1,0,0.1,0l2.9,1.6c0,0,0,0,0,0.1c0,0,0,0,0,0.1l-0.4,0.2c0,0-0.1,0-0.1,0c0,0-0.1,0-0.1,0l-2.2-1.3L153,270
				c0,0,0,0-0.1,0.1c0,0-0.1,0-0.1,0L152.3,270.1z"/>
			<path class="st2" d="M154.6,268.8c0,0-0.1,0-0.1,0c0,0,0,0,0-0.1l0.2-1c0,0,0,0,0-0.1l0.1-0.1l0.4-0.2c0,0,0.1,0,0.1,0
				c0,0,0.1,0,0.1,0l2.9,1.6c0,0,0,0,0,0.1c0,0,0,0,0,0.1l-0.4,0.2c0,0-0.1,0-0.1,0h-0.1l-2.2-1.3l-0.1,0.6c0,0,0,0-0.1,0.1
				c0,0-0.1,0-0.1,0L154.6,268.8z"/>
			<path class="st2" d="M157.4,267c0,0,0.1,0,0.1,0c0,0,0.1,0,0.1,0l0.4,0.2c0,0,0,0,0,0.1c0,0,0,0,0,0.1l-0.4,0.2h-0.1
				c0,0-0.1,0-0.1,0l-0.4-0.2c0,0,0,0,0-0.1c0,0,0,0,0-0.1L157.4,267z M158.9,267.9c0.1,0,0.2,0,0.2,0l0.4,0.2c0,0,0.1,0,0.1,0.1
				c0,0,0,0.1-0.1,0.1l-0.4,0.2c-0.1,0-0.2,0-0.2,0l-0.4-0.2c0,0-0.1,0-0.1-0.1c0,0,0-0.1,0.1-0.1L158.9,267.9z"/>
			<path class="st2" d="M161.9,267c-0.1,0-0.2,0-0.2,0l-0.5-0.3l-1.4,0.8h-0.1c0,0-0.1,0-0.1,0l-0.3-0.2c-0.1,0-0.1,0-0.1-0.1
				c0,0,0-0.1,0-0.1l-0.3-1.8c0-0.1,0-0.1,0.1-0.2l0.3-0.2h0.1h0.1l1.8,1l0.4-0.2h0.1h0.1l0.3,0.2c0,0,0,0,0.1,0.1c0,0,0,0-0.1,0.1
				l-0.4,0.2l0.5,0.3c0,0,0.1,0,0,0.1c0,0,0,0,0,0.1L161.9,267z M160.6,266.4l-0.9-0.5l0.2,1L160.6,266.4z"/>
			<path class="st2" d="M160.7,264.2C160.7,264.2,160.7,264.2,160.7,264.2c0-0.1,0-0.1,0-0.1l1.7-1c0.1,0,0.2,0,0.2,0l0.3,0.2
				c0,0,0.1,0,0.1,0.1s0,0-0.1,0.1l-1.2,0.7l0.5,0.4c0-0.1,0.1-0.1,0.2-0.2l0.2-0.1c0.2-0.1,0.3-0.2,0.5-0.2
				c0.2-0.1,0.4-0.1,0.6-0.1c0.2,0,0.4,0,0.6,0c0.2,0,0.4,0.1,0.5,0.2c0.2,0.1,0.3,0.2,0.4,0.3c0.1,0.1,0.1,0.2,0.1,0.3
				c0,0.1-0.1,0.2-0.2,0.3c-0.1,0.1-0.3,0.2-0.4,0.3c-0.2,0.1-0.4,0.2-0.6,0.3c-0.2,0.1-0.4,0.1-0.6,0.1c-0.2,0-0.3,0-0.5,0
				c-0.1,0-0.3-0.1-0.4-0.1c0,0-0.1,0-0.1-0.1s0,0,0.1-0.1l0.4-0.2h0.1h0.1c0.1,0,0.2,0,0.2,0h0.2l0.2-0.1l0.2-0.1
				c0.2-0.1,0.3-0.2,0.3-0.3s-0.1-0.2-0.2-0.3c-0.1-0.1-0.3-0.1-0.5-0.1c-0.2,0-0.4,0.1-0.6,0.1c-0.1,0-0.1,0.1-0.2,0.1
				c0,0-0.1,0.1-0.1,0.1c0,0,0,0.1,0,0.1c0,0,0,0.1-0.1,0.1l-0.4,0.2h-0.1h-0.1L160.7,264.2z"/>
			<polygon class="st2" points="113.2,295 112.3,294.5 113.5,293.8 114.4,294.3 			"/>
			<polygon class="st2" points="115,294 113.2,292.9 114.4,292.2 116.3,293.3 			"/>
			<polygon class="st2" points="116.9,292.9 114.1,291.3 115.3,290.6 118.1,292.2 			"/>
			<polygon class="st2" points="118.7,291.9 115,289.7 116.3,289 119.9,291.1 			"/>
			<path class="st2" d="M201.9,240.4c-0.2,0-0.5,0-0.7,0.1l-4.6,2.6c-0.3,0.2-0.2,0.5,0.2,0.7l1.7,1c0.2,0.1,0.5,0.2,0.8,0.2
				c0.1,0,0.2,0,0.4,0c0.1,0,0.2,0,0.4-0.1l4.6-2.6c0.3-0.2,0.2-0.5-0.2-0.7l-1.7-1C202.5,240.5,202.2,240.4,201.9,240.4z
				 M199.2,244.9c-0.1,0-0.2-0.1-0.3-0.1l-1.7-1c-0.3-0.2-0.4-0.4-0.1-0.6l4.6-2.6c0.1,0,0.1-0.1,0.2-0.1h0.1c0.1,0,0.2,0.1,0.4,0.1
				l1.7,1c0.3,0.2,0.4,0.4,0.1,0.5l-4.6,2.6C199.4,244.9,199.3,244.9,199.2,244.9z"/>
			<path class="st2" d="M198.2,242.9l2,1.1l-0.7,0.4c-0.1,0-0.2,0-0.2,0l-1.5-0.9c-0.2-0.1-0.3-0.3-0.1-0.4L198.2,242.9z"/>
			<polygon class="st2" points="198.6,242.7 199.4,242.2 201.4,243.4 200.5,243.9 			"/>
			<polygon class="st2" points="199.8,242 200.6,241.5 202.6,242.7 201.7,243.2 			"/>
			<path class="st2" d="M201.9,240.9l1.4,0.8c0.3,0.1,0.2,0.4-0.1,0.6l-0.3,0.2l-2-1.1l0.7-0.4C201.7,240.9,201.8,240.9,201.9,240.9
				z"/>
			<path class="st2" d="M202.9,240.5c0.3,0,0.6,0.1,0.9,0.2l0.3,0.2c0.3,0.2,0.5,0.4,0.4,0.5l-0.2,0.1l-1.6-0.9L202.9,240.5z"/>
			<polygon class="st2" points="190.2,248.1 193.8,245 195.6,247.7 193.2,247 			"/>
		</g>
		<g id="Button--inject-16">
			<path class="st4" d="M266,378v0.9c0.1,1.5,0.9,3,2.2,3.8l17.2,9.9c1.4,0.7,3,0.7,4.4,0l84.6-48.9c1.3-0.8,2.1-2.3,2.2-3.8v-0.9
				c-0.1-1.5-0.9-3-2.2-3.8l-17.2-9.9c-1.4-0.7-3-0.7-4.4,0l-84.6,48.9C266.9,375.1,266.1,376.5,266,378z"/>
			<path class="st7" d="M374.5,335.5c0.9,0.7,0.8,1.7-0.3,2.3l-84.6,48.9c-0.7,0.4-1.4,0.5-2.2,0.5v5.9c0.8,0,1.5-0.2,2.2-0.5
				l84.6-48.9c1.3-0.8,2.1-2.3,2.2-3.8v-0.9C376.4,337.7,375.7,336.4,374.5,335.5z"/>
			<path class="st8" d="M267.8,374.5c-1.1,0.9-1.8,2.2-1.9,3.6v0.9c0.1,1.5,0.9,3,2.2,3.8l17.1,9.9c0.7,0.4,1.4,0.5,2.2,0.5v-5.9
				c-0.8,0-1.5-0.2-2.2-0.5l-17.2-9.9C267.1,376.2,267,375.2,267.8,374.5z"/>
			<path class="st2" d="M293.2,368.2c0.1-0.1,0.3-0.1,0.4-0.1c0.1,0,0.3,0,0.4,0l9,2.5l0.2,0.1c0.1,0,0.1,0.1,0.1,0.1
				c0,0,0,0.1-0.1,0.1l-1.3,0.8c-0.1,0.1-0.3,0.1-0.4,0.1c-0.1,0-0.2,0-0.3,0l-1.2-0.3l-2.8,1.6l0.6,0.7c0,0,0.1,0.1,0.1,0.2
				c0,0.1-0.1,0.1-0.2,0.2l-1.3,0.8c-0.1,0-0.1,0.1-0.2,0.1c-0.1,0-0.2,0-0.2-0.1c0,0-0.1-0.1-0.1-0.1l-4.4-5.2
				c0-0.1-0.1-0.1-0.1-0.2c0-0.1,0.1-0.2,0.2-0.2L293.2,368.2z M296.1,371.9l1.7-1l-3.4-1L296.1,371.9z"/>
			<path class="st2" d="M300,364.3c0.5-0.3,1-0.5,1.6-0.6c0.5-0.1,1.1-0.2,1.6-0.2c0.5,0,1.1,0,1.6,0.1c0.5,0.1,1,0.3,1.5,0.5
				l0.4,0.2l0.4,0.2l0.4,0.2l0.4,0.2c0.4,0.2,0.7,0.5,0.9,0.9c0.2,0.3,0.3,0.6,0.3,0.9c0,0.4-0.2,0.7-0.4,1
				c-0.3,0.4-0.7,0.7-1.1,0.9l-2.9,1.6c-0.1,0.1-0.2,0.1-0.3,0.1c-0.1,0-0.2,0-0.3-0.1l-6.9-4c-0.1,0-0.1-0.1-0.1-0.2
				c0-0.1,0.1-0.1,0.1-0.2L300,364.3z M304.3,365.2c-0.8-0.4-1.9-0.4-2.7,0.1l-1.1,0.6l4,2.3l1.1-0.7c0.9-0.5,1-1,0.2-1.5l-0.4-0.2
				l-0.4-0.2l-0.4-0.2L304.3,365.2z"/>
			<path class="st2" d="M307.7,359.9c0.5-0.3,1-0.5,1.6-0.6c0.5-0.1,1.1-0.2,1.7-0.2c0.5,0,1.1,0,1.6,0.1c0.5,0.1,1,0.3,1.5,0.5
				l0.4,0.2l0.4,0.2l0.4,0.2l0.4,0.2c0.4,0.2,0.7,0.5,0.9,0.9c0.2,0.3,0.3,0.6,0.3,0.9c0,0.4-0.2,0.7-0.4,1
				c-0.3,0.4-0.7,0.7-1.1,0.9l-2.9,1.6c-0.1,0-0.2,0.1-0.3,0.1c-0.1,0-0.2,0-0.3-0.1l-6.9-4c-0.1,0-0.1-0.1-0.1-0.2
				c0-0.1,0.1-0.1,0.1-0.2L307.7,359.9z M312,360.8c-0.8-0.4-1.9-0.4-2.7,0.1l-1.1,0.6l4,2.3l1.1-0.7c0.9-0.5,0.9-1,0.2-1.5
				l-0.4-0.2c-0.1-0.1-0.3-0.1-0.4-0.2l-0.4-0.2L312,360.8z"/>
			<path class="st2" d="M319.7,353c0.1,0,0.2-0.1,0.3-0.1c0.1,0,0.2,0,0.3,0.1l1.1,0.6c0.1,0,0.1,0.1,0.1,0.2c0,0.1,0,0.1-0.1,0.2
				l-1.9,1l5.4,3.1c0.1,0,0.1,0.1,0.1,0.2c0,0.1-0.1,0.1-0.1,0.2l-1.4,0.8c-0.1,0.1-0.2,0.1-0.3,0.1c-0.1,0-0.2,0-0.3-0.1l-5.4-3.1
				l-1.9,1.1c-0.1,0-0.2,0.1-0.3,0.1c-0.1,0-0.2,0-0.3-0.1l-1.1-0.6c-0.1,0-0.1-0.1-0.1-0.2c0-0.1,0.1-0.1,0.1-0.2L319.7,353z"/>
			<path class="st2" d="M323.3,354.1c-0.3-0.2-0.6-0.5-0.9-0.8c-0.2-0.3-0.3-0.6-0.3-0.9c0-0.3,0.2-0.7,0.4-1
				c0.3-0.4,0.7-0.7,1.1-0.9c0.5-0.3,1-0.5,1.6-0.7c0.5-0.1,1.1-0.2,1.6-0.2c0.5,0,1,0,1.6,0.2c0.5,0.1,0.9,0.3,1.4,0.5l1,0.5
				l0.9,0.5c0.3,0.2,0.6,0.5,0.9,0.8c0.2,0.3,0.3,0.6,0.3,0.9c0,0.4-0.2,0.7-0.4,1c-0.3,0.4-0.7,0.7-1.1,0.9c-0.5,0.3-1,0.5-1.6,0.7
				c-0.5,0.1-1.1,0.2-1.6,0.2c-0.5,0-1,0-1.6-0.2c-0.5-0.1-0.9-0.3-1.4-0.5c-0.3-0.2-0.6-0.3-1-0.5L323.3,354.1z M329.8,352.4
				l-0.4-0.3l-0.5-0.3l-0.5-0.3l-0.4-0.2c-0.2-0.1-0.4-0.2-0.6-0.2c-0.2-0.1-0.4-0.1-0.6-0.1c-0.2,0-0.5,0-0.7,0.1
				c-0.2,0.1-0.5,0.2-0.7,0.3c-0.2,0.1-0.3,0.2-0.5,0.4c-0.1,0.1-0.1,0.2-0.1,0.4c0,0.1,0,0.3,0.1,0.4c0.1,0.1,0.2,0.3,0.4,0.3
				c0.1,0.1,0.2,0.2,0.4,0.2c0.1,0.1,0.3,0.2,0.5,0.3l0.5,0.3c0.1,0.1,0.3,0.2,0.5,0.2c0.4,0.2,0.8,0.3,1.2,0.3
				c0.5,0,0.9-0.1,1.3-0.4c0.4-0.2,0.6-0.5,0.6-0.8C330.3,352.8,330.1,352.6,329.8,352.4z"/>
			<path class="st2" d="M335.2,347.3l0.4,0.2l0.5,0.3l0.5,0.3l0.4,0.2c0.2,0.1,0.4,0.2,0.6,0.2c0.2,0.1,0.4,0.1,0.6,0.1
				c0.2,0,0.5,0,0.7-0.1c0.3-0.1,0.5-0.2,0.7-0.3c0.2-0.1,0.4-0.2,0.5-0.4c0.1-0.1,0.1-0.2,0.2-0.3c0-0.1,0-0.2,0-0.3
				c0-0.1-0.1-0.2-0.2-0.2c-0.1-0.1-0.1-0.1-0.1-0.2c0,0,0.1-0.1,0.2-0.2l1.4-0.8c0.1-0.1,0.3-0.1,0.5,0c0.3,0.2,0.6,0.4,0.8,0.7
				c0.1,0.3,0.2,0.6,0.1,0.9c-0.1,0.3-0.3,0.7-0.5,0.9c-0.3,0.4-0.7,0.6-1.1,0.9c-0.5,0.3-1,0.5-1.6,0.6c-0.5,0.1-1.1,0.2-1.6,0.2
				c-0.5,0-1.1,0-1.6-0.2c-0.5-0.1-0.9-0.3-1.4-0.5c-0.3-0.1-0.6-0.3-1-0.5s-0.6-0.4-0.9-0.6c-0.3-0.2-0.6-0.5-0.9-0.8
				c-0.2-0.3-0.3-0.6-0.3-0.9c0-0.3,0.2-0.7,0.4-1c0.3-0.4,0.7-0.7,1.1-0.9c0.5-0.3,1-0.5,1.5-0.6c0.5-0.1,1.1-0.2,1.6-0.3
				c0.5,0,1,0,1.5,0.1c0.4,0.1,0.9,0.2,1.3,0.4c0.1,0,0.1,0.1,0.1,0.1c0,0.1,0,0.1-0.1,0.1l-1.4,0.8c-0.1,0.1-0.2,0.1-0.3,0.1
				c-0.1,0-0.2,0-0.4-0.1c-0.1,0-0.3-0.1-0.4-0.1c-0.2,0-0.3,0-0.5,0c-0.2,0-0.4,0-0.6,0.1c-0.2,0.1-0.5,0.2-0.7,0.3
				c-0.2,0.1-0.4,0.2-0.5,0.4c-0.1,0.1-0.1,0.2-0.1,0.4c0,0.1,0.1,0.3,0.2,0.4C335,347.1,335.1,347.2,335.2,347.3z"/>
			<path class="st2" d="M341.9,340.1c0.1-0.1,0.3-0.1,0.4-0.1c0.1,0,0.3,0,0.4,0l9,2.5l0.2,0.1c0.1,0,0.1,0.1,0.1,0.1s0,0.1-0.1,0.1
				l-1.3,0.8c-0.1,0.1-0.3,0.1-0.4,0.1c-0.1,0-0.2,0-0.3,0l-1.2-0.3l-2.8,1.6l0.6,0.7c0,0,0.1,0.1,0.1,0.2c0,0.1-0.1,0.1-0.2,0.2
				l-1.3,0.8c-0.1,0.1-0.3,0.1-0.5,0c0,0-0.1-0.1-0.1-0.1l-4.4-5.2c-0.1-0.1-0.1-0.1-0.1-0.2c0-0.1,0.1-0.2,0.2-0.3L341.9,340.1z
				 M344.9,343.8l1.7-1l-3.4-1L344.9,343.8z"/>
			<path class="st2" d="M348.8,336.2c0.4-0.3,0.9-0.5,1.4-0.6c0.4-0.2,0.9-0.2,1.4-0.3c0.5,0,0.9,0,1.4,0.1c0.4,0.1,0.9,0.3,1.3,0.5
				c0.4,0.2,0.8,0.6,1,1c0.1,0.3,0.1,0.7-0.1,1l3.8,0.7c0.1,0,0.1,0,0.1,0c0.1,0,0.1,0.1,0.1,0.1s0,0.1-0.1,0.1l-1.4,0.8
				c-0.1,0.1-0.3,0.1-0.4,0.1h-0.3l-3.5-0.6l-1,0.6l2.3,1.3c0.1,0,0.1,0.1,0.1,0.2c0,0.1-0.1,0.1-0.1,0.2l-1.4,0.8
				c-0.1,0-0.2,0.1-0.3,0.1c-0.1,0-0.2,0-0.3-0.1l-6.9-4c-0.1,0-0.1-0.1-0.1-0.2c0-0.1,0-0.1,0.1-0.2L348.8,336.2z M350.8,338.7
				l1.2-0.7c0.2-0.1,0.4-0.3,0.6-0.5c0.1-0.2,0-0.4-0.3-0.5c-0.3-0.2-0.6-0.2-0.9-0.2c-0.3,0-0.6,0.2-0.9,0.3l-1.2,0.7L350.8,338.7z
				"/>
			<path class="st2" d="M358.4,330.6c0.2-0.1,0.4-0.1,0.6,0l1.1,0.6c0.1,0,0.1,0.1,0.1,0.2c0,0.1,0,0.1-0.1,0.2l-1.9,1.1l5.5,3.1
				c0.1,0,0.1,0.1,0.1,0.2c0,0.1,0,0.1-0.1,0.2l-1.4,0.8c-0.2,0.1-0.4,0.1-0.6,0l-5.4-3.1l-1.9,1.1c-0.1,0-0.2,0.1-0.3,0.1
				c-0.1,0-0.2,0-0.3-0.1l-1.1-0.6c-0.1,0-0.1-0.1-0.1-0.2c0-0.1,0-0.1,0.1-0.2L358.4,330.6z"/>
			<path class="st2" d="M280,374c-2.7,1.5-2.7,4.1,0,5.6c3.1,1.5,6.7,1.5,9.7,0c2.7-1.5,2.7-4,0-5.6
				C286.7,372.5,283.1,372.5,280,374z M288,375.8l-1.8,1l1.8,1c0.2,0.1,0.3,0.3,0.2,0.4c0,0.1-0.1,0.2-0.2,0.2
				c-0.4,0.2-0.8,0.2-1.2,0l-1.8-1l-1.8,1c-0.4,0.2-0.8,0.2-1.2,0c-0.2-0.1-0.3-0.3-0.2-0.4c0-0.1,0.1-0.2,0.2-0.2l1.8-1l-1.8-1
				c-0.2-0.1-0.3-0.3-0.2-0.4c0-0.1,0.1-0.2,0.2-0.2c0.4-0.2,0.8-0.2,1.2,0l1.8,1l1.8-1c0.4-0.2,0.8-0.2,1.2,0
				c0.2,0,0.3,0.2,0.3,0.4S288.1,375.9,288,375.8L288,375.8z"/>
		</g>
	</g>
</g>
<g id="Cart--inject-16">
	<g id="cart--inject-16">
		<path class="st3" d="M298.2,308.6c-0.2-4.7-2.7-9.1-6.7-11.7c-1.9-1.1-3.7-1.2-4.9-0.4l0,0l-4.5,2.6l9.5,16.5l4.5-2.6l0,0
			C297.4,312.3,298.2,310.8,298.2,308.6z"/>
		<path class="st2" d="M286.8,299.6c4,2.6,6.4,7,6.7,11.7c0,4.3-3.1,6-6.8,3.9c-4-2.6-6.4-7-6.7-11.7
			C280.1,299.2,283.1,297.4,286.8,299.6z"/>
		<path class="st5" d="M284.5,306.1c0-1.7,1-2.5,2.3-1.7c1.4,1,2.2,2.6,2.2,4.4c0,1.7-1,2.4-2.3,1.7
			C285.3,309.4,284.5,307.8,284.5,306.1z"/>
		<path class="st7" d="M293.5,311.3c0-1.5-0.3-3.1-0.9-4.5l-11.5-6.7c-0.7,1-1,2.2-0.9,3.4c0,0,0,0.1,0,0.2L293.5,311.3
			C293.5,311.4,293.5,311.3,293.5,311.3z"/>
		<path class="st2" d="M250.3,345.2c-2.4,0.2-4.9-0.3-7.1-1.3l-63-36.3c-3.8-1.9-8.1-6.9-8.4-11.6l-1.9-44.9l3.5-0.2l1.9,44.9
			c0.2,3.2,3.5,7.2,6.4,8.7l63.1,36.3c3.4,1.4,7.3,1.2,10.6-0.6l42-24.2c1-0.7,1.6-1.5,1.5-2.1s-0.7-1.3-1.7-1.9l-67.5-39.2
			c-3.8-1.9-8.1-6.9-8.3-11.6l-0.9-24.9l3.5-0.2l0.9,24.9c0.2,3.2,3.5,7.2,6.4,8.7l67.5,39.2c2.2,1.1,3.5,2.8,3.7,4.8
			s-1,3.9-3.1,5.3l-42,24.2C255.2,344.4,252.8,345.1,250.3,345.2z"/>
		<path class="st3" d="M239,344.2c-0.2-4.7-2.7-9.1-6.7-11.7c-1.9-1.1-3.7-1.2-4.9-0.4l0,0l-4.6,2.6l9.6,16.5l4.5-2.6l0,0
			C238.2,347.9,239,346.4,239,344.2z"/>
		<path class="st2" d="M227.6,335.2c4,2.6,6.4,7,6.7,11.7c0,4.3-3.1,6-6.8,3.8c-4-2.6-6.4-7-6.6-11.7
			C220.9,334.8,223.9,333,227.6,335.2z"/>
		<path class="st5" d="M225.3,341.6c0-1.7,1-2.5,2.3-1.7c1.4,1,2.2,2.6,2.2,4.4c0,1.7-1,2.4-2.3,1.7
			C226.1,345,225.3,343.4,225.3,341.6z"/>
		<path class="st3" d="M192.4,317.4c-0.2-4.7-2.7-9.1-6.6-11.7c-1.9-1.1-3.7-1.2-4.9-0.4l0,0l-4.6,2.5l9.5,16.5l4.5-2.6l0,0
			C191.6,321.1,192.4,319.5,192.4,317.4z"/>
		<path class="st2" d="M181.1,308.3c3.9,2.6,6.4,6.9,6.6,11.7c0,4.3-3.1,6-6.8,3.8c-4-2.6-6.4-7-6.6-11.7
			C174.3,307.9,177.4,306.1,181.1,308.3z"/>
		<path class="st5" d="M178.7,314.8c0-1.7,1-2.4,2.3-1.7c1.4,1,2.2,2.6,2.2,4.4c0,1.7-1,2.4-2.3,1.7
			C179.6,318.1,178.7,316.5,178.7,314.8z"/>
		<path class="st2" d="M162.4,196.7c-1.2-4.7,0.6-9.6,4.5-12.5l41.9-23.7c3.8-2.5,8-0.8,9.3,3.6l2.9,9.4l-2.9,1.7l-3.1-9.5
			c-0.4-1.7-2.1-2.7-3.8-2.3c-0.4,0.1-0.8,0.3-1.2,0.6L169.2,187c-2.5,1.8-3.7,5-2.9,8l2.5,9.1l-3.4,2L162.4,196.7z"/>
		<polygon class="st4" points="227.2,242.1 170.9,274.6 253.2,322.1 309.5,289.6 		"/>
		<polygon class="st9" points="227.2,242.1 170.9,274.6 253.2,322.1 309.5,289.6 		"/>
		<polygon class="st4" points="165.3,206.1 221,173.6 227.2,242.1 170.9,274.6 		"/>
		<polygon class="st10" points="165.3,206.1 221,173.6 227.2,242.1 170.9,274.6 		"/>
		<path class="st4" d="M221,173.6l6.2,68.6l82.3,47.5l13-57.5L221,173.6z M249.8,239.5c-2.5,0.8-5.1-0.6-5.9-3.1l-13.6-35.3
			c-1.2-2.2-0.4-4.9,1.8-6c2.2-1.2,4.9-0.4,6,1.8c0.2,0.3,0.3,0.7,0.4,1.1l13.6,35.3C253.1,235.6,252.1,238.4,249.8,239.5
			L249.8,239.5z M275.5,251.6c-2.5,0.8-5.1-0.6-5.9-3.1L256,213.2c-1.2-2.2-0.4-4.9,1.8-6c2.2-1.2,4.9-0.4,6,1.8
			c0.2,0.3,0.3,0.7,0.4,1l13.6,35.3C278.9,247.7,277.8,250.5,275.5,251.6L275.5,251.6z M301.1,263.6c-2.5,0.8-5.1-0.6-5.9-3
			l-13.6-35.3c-1.1-2.2-0.3-4.8,1.9-6s4.8-0.3,6,1.9c0.2,0.3,0.3,0.6,0.4,1l13.6,35.3C304.5,259.8,303.5,262.6,301.1,263.6
			L301.1,263.6z"/>
		<path class="st11" d="M221,173.6l6.2,68.6l82.3,47.5l13-57.5L221,173.6z M249.8,239.5c-2.5,0.8-5.1-0.6-5.9-3.1l-13.6-35.3
			c-1.2-2.2-0.4-4.9,1.8-6c2.2-1.2,4.9-0.4,6,1.8c0.2,0.3,0.3,0.7,0.4,1.1l13.6,35.3C253.1,235.6,252.1,238.4,249.8,239.5
			L249.8,239.5z M275.5,251.6c-2.5,0.8-5.1-0.6-5.9-3.1L256,213.2c-1.2-2.2-0.4-4.9,1.8-6c2.2-1.2,4.9-0.4,6,1.8
			c0.2,0.3,0.3,0.7,0.4,1l13.6,35.3C278.9,247.7,277.8,250.5,275.5,251.6L275.5,251.6z M301.1,263.6c-2.5,0.8-5.1-0.6-5.9-3
			l-13.6-35.3c-1.1-2.2-0.3-4.8,1.9-6s4.8-0.3,6,1.9c0.2,0.3,0.3,0.6,0.4,1l13.6,35.3C304.5,259.8,303.5,262.6,301.1,263.6
			L301.1,263.6z"/>
		<path class="st4" d="M165.3,206.1l5.6,68.5l82.3,47.5l13-57.5L165.3,206.1z M197.8,273.6c-2.5,0.8-5.1-0.6-5.9-3.1l-13.6-35.3
			c-1.1-2.2-0.3-4.8,1.8-6c2.2-1.1,4.8-0.3,6,1.8c0.2,0.3,0.3,0.6,0.4,1l13.6,35.3C201.2,269.7,200.1,272.5,197.8,273.6L197.8,273.6
			z M223.5,285.6c-2.5,0.8-5.1-0.6-5.9-3L204,247.3c-1.2-2.2-0.4-4.9,1.8-6c2.2-1.2,4.9-0.4,6,1.8c0.2,0.3,0.3,0.7,0.4,1l13.6,35.3
			C226.9,281.8,225.8,284.6,223.5,285.6L223.5,285.6z M249.1,297.7c-2.5,0.8-5.1-0.6-5.9-3l-13.6-35.3c-1.2-2.2-0.4-4.9,1.8-6
			c2.2-1.2,4.9-0.4,6,1.8c0.2,0.3,0.3,0.7,0.4,1l13.6,35.3C252.5,293.9,251.5,296.6,249.1,297.7L249.1,297.7z"/>
		<g class="st12">
			<path d="M165.3,206.1l5.6,68.5l82.3,47.5l13-57.5L165.3,206.1z M197.8,273.6c-2.5,0.8-5.1-0.6-5.9-3.1l-13.6-35.3
				c-1.1-2.2-0.3-4.8,1.8-6c2.2-1.1,4.8-0.3,6,1.8c0.2,0.3,0.3,0.6,0.4,1l13.6,35.3C201.2,269.7,200.1,272.5,197.8,273.6
				L197.8,273.6z M223.5,285.6c-2.5,0.8-5.1-0.6-5.9-3L204,247.3c-1.2-2.2-0.4-4.9,1.8-6c2.2-1.2,4.9-0.4,6,1.8
				c0.2,0.3,0.3,0.7,0.4,1l13.6,35.3C226.9,281.8,225.8,284.6,223.5,285.6L223.5,285.6z M249.1,297.7c-2.5,0.8-5.1-0.6-5.9-3
				l-13.6-35.3c-1.2-2.2-0.4-4.9,1.8-6c2.2-1.2,4.9-0.4,6,1.8c0.2,0.3,0.3,0.7,0.4,1l13.6,35.3C252.5,293.9,251.5,296.6,249.1,297.7
				L249.1,297.7z"/>
		</g>
		<polygon class="st4" points="266.1,264.6 322.5,232.1 309.5,289.6 253.2,322.1 		"/>
		<polygon class="st13" points="266.1,264.6 322.5,232.1 309.5,289.6 253.2,322.1 		"/>
	</g>
</g>
<g id="Arrow--inject-16">
	<g id="arrow--inject-16">
		<polygon class="st3" points="286.4,140.5 279.9,144.3 280,124.6 276,122.3 258.2,132.6 258.1,156.9 247.7,162.8 271,177.9 
			290.4,142.8 		"/>
		<polygon class="st2" points="262.1,134.9 262.1,159.2 251.7,165.1 271,177.9 290.4,142.8 279.9,148.9 280,124.6 		"/>
		<polygon class="st5" points="258.2,132.6 262.1,134.9 262.1,159.2 258.1,156.9 		"/>
	</g>
</g>
<g id="Character--inject-16">
	<g id="character--inject-16">
		<path class="st14" d="M387.2,122.1c-2.9,6.3-7.9,16.6-10.6,22.4l-10.7-12.6h-9c0,0,10.8,23,17.2,28.4c2,1.9,5.3,1.8,7.2-0.2
			c0.1-0.1,0.1-0.1,0.2-0.2c2.6-3.2,5-6.5,7.2-10c5.1-7.9,7.4-11.3,7.4-11.3l6.4-27C397,111.1,391.3,113.4,387.2,122.1z"/>
		<path class="st4" d="M403.6,111.5c-3.4-0.1-7.2-0.6-10.4,2.3c-3.1,2.7-5.6,6.2-7.1,10c-2.2,5.2-5.6,11.8-5.6,11.8
			c1.8,2.6,3.9,4.8,6.4,6.7c2.2,1.7,4.9,2.8,7.7,3.2L403.6,111.5z"/>
		<path class="st15" d="M403.6,111.5c-3.4-0.1-7.2-0.6-10.4,2.3c-3.1,2.7-5.6,6.2-7.1,10c-2.2,5.2-5.6,11.8-5.6,11.8
			c1.8,2.6,3.9,4.8,6.4,6.7c2.2,1.7,4.9,2.8,7.7,3.2L403.6,111.5z"/>
		<path class="st16" d="M376.6,144.5c1.2,1.4,2.3,2.9,3.3,4.5c0,0-1.1-4.2-2.7-5.7L376.6,144.5z"/>
		<path class="st2" d="M354.3,115.2L354.3,115.2l0.9-0.9l0,0c0.3-0.2,0.6-0.3,1-0.2l10.3,1.8c1.1,0.2,2,0.9,2.5,1.9l9.3,20.2
			c0.2,0.3,0.2,0.8,0,1.1l0,0l-0.9,0.9l0,0c-0.3,0.2-0.7,0.3-1,0.2l-10.3-1.8c-1.1-0.2-2-0.9-2.5-1.9l-9.3-20.2
			C354,115.8,354,115.4,354.3,115.2z"/>
		<path class="st5" d="M377.3,138.9l-9.3-20.2c-0.5-1-1.4-1.6-2.5-1.9l-10.3-1.7c-1-0.2-1.4,0.4-1,1.3l9.3,20.2
			c0.5,1,1.4,1.7,2.5,1.9l10.3,1.8C377.3,140.3,377.7,139.7,377.3,138.9z"/>
		<path class="st3" d="M366.7,117.2c0.6,0.3,1,0.8,1.3,1.4l9.3,20.2c0.2,0.3,0.2,0.7,0,1.1l0.8-0.9l0,0c0.2-0.3,0.2-0.8,0-1.1
			l-9.3-20.2c-0.3-0.6-0.7-1-1.2-1.3L366.7,117.2z"/>
		<path class="st14" d="M359.2,135.2c-4.3-4.9-4.2-11.1-2.2-12.8l1.3,2.8c0,0,6.5,1.5,9.7,1.2s5.7-1,6.6-0.4
			c1.8,1.3,2.4,6.8-2.9,8.8C367.2,136.5,359.2,135.2,359.2,135.2z"/>
		<g id="Botom--inject-16">
			<path class="st14" d="M434.4,296.5c-2.8,1.5-6.1,1.4-9.4,0l-1.4-17.9l10.8,1.4V296.5z"/>
			<path class="st14" d="M401.3,285.8c-2.3,5-6.5,3.6-11.3,0.4l0.8-18h11.5L401.3,285.8z"/>
			<path class="st5" d="M414.2,313.5c-0.3,0.9-0.2,1.9,0.1,2.8c0.4,0.6,2.4,2.3,6.2,2.6c3.6,0.3,6.8-0.2,8.9-1.5s3.1-2.8,3.3-4.8
				s0-4,0.9-5.6s2.3-3.1,2.6-3.9c0.4-1.4,0.4-2.8,0-4.1L414.2,313.5z"/>
			<path class="st3" d="M424,295.7c-0.1,0.8-0.2,1.5-0.4,2.3c-0.6,1.6-1.3,3.1-2.2,4.5c-0.5,0.7-0.9,1.4-1.5,2.1
				c-1.1,1.3-2.4,2.3-3.6,3.6c-1.2,1.2-2,2.7-2.2,4.4c-0.1,2.8,2.9,3.8,5.2,4.2c2.5,0.4,5.1,0.3,7.6-0.4c2.7-0.7,4.7-2.9,5.1-5.6
				c0.1-0.8,0.1-1.6,0.2-2.4c0.3-1.8,1.1-3.5,2.2-4.9c0.7-0.8,1.2-1.7,1.7-2.7c0.7-1.7,0.1-3.7-0.3-5.4c-0.4-1.5-0.9-3.2-1.4-3
				c0,0.3,0,0.6-0.1,0.9c-0.2,0.3-0.3,0.6-0.4,0.9c-0.1,0.4-0.2,0.8-0.4,1.1c-0.3,0.6-0.7,1.1-1.2,1.4c0-1-0.1-2.1-0.1-3.2
				c0-0.3-0.1-0.7-0.2-0.9c-0.2-0.2-0.6-0.4-0.9-0.4c-2-0.5-4-0.6-6-0.5c-0.3,0-0.6,0.1-0.8,0.4c-0.1,0.2-0.2,0.5-0.1,0.7
				C424.1,293.8,424.1,294.7,424,295.7z"/>
			<path class="st0" d="M421,303c1-0.8,3.4-0.8,4.7-0.6c1.3,0.1,2.5,0.5,3.6,1.3c0.3,0.2,0.8,0.2,1.1-0.1l0,0c0.3-0.3,0.3-0.8,0-1.1
				c0,0-0.1-0.1-0.1-0.1c-1.2-0.9-2.6-1.4-4.1-1.5c-3.1-0.2-4.1,0.3-4.1,0.3S420.7,302.1,421,303z"/>
			<path class="st0" d="M418.6,305.9c1.3-0.8,3.9-0.7,5.2-0.5c1.3,0.1,2.5,0.6,3.5,1.4c0.3,0.2,0.8,0.2,1.1-0.1l0,0
				c0.3-0.3,0.3-0.8,0-1.1c0,0-0.1-0.1-0.1-0.1c-1.2-0.9-2.7-1.5-4.2-1.6c-3.1-0.2-4,0.4-4,0.4C419.4,304.5,418.8,305.2,418.6,305.9
				z"/>
			<path class="st0" d="M427.5,297.9c-1.3-0.2-2.7-0.1-4,0.3c-0.5,0.3-0.9,1.2-0.6,1.4c1.1-0.4,2.3-0.6,3.5-0.5
				c1.2,0.1,2.3,0.4,3.4,0.9c0.3,0.1,0.6,0.3,0.9,0.4c0.4,0.2,0.8,0,1-0.3c0,0,0,0,0,0l0,0c0.2-0.3,0-0.7-0.3-0.9
				C430.2,298.5,428.9,298.1,427.5,297.9z"/>
			<path class="st5" d="M371.3,297.3c-0.3,0.8-0.2,1.7,0.1,2.5c0.4,0.7,4.2,2.9,9.3,2.5c3.8-0.3,7.5-1.5,10.6-3.7
				c2-1.3,4-1.5,6.5-1.7s5.9-1.4,6.4-2.6c0.3-1.1,0.3-2.2-0.1-3.2L371.3,297.3z"/>
			<path class="st3" d="M391.9,281.5l-1.3-0.5c-0.2-0.1-0.5-0.1-0.8-0.1c-0.3,0.1-0.5,0.5-0.5,0.9c-0.1,0.8-0.3,1.5-0.6,2.2
				c-0.4,0.6-0.9,1.1-1.4,1.5c-1.3,1-2.7,1.9-4.1,2.6c-1.7,0.9-3.3,1.6-5.1,2.4s-4.1,1.3-5.5,2.2c-2,1.4-2.3,4.8,0,6.1
				c2,1.2,7.2,2.4,12.7,0.9c3-0.8,6.3-4,10.2-4.3c2.5-0.2,7.2-0.9,8.8-2.8c0.6-0.8-0.2-3.5-0.8-5.8c-0.7-2.5-1-6.4-1.8-6.2
				c-0.1,0.8-0.8,1.3-1.2,2c-0.3,0.6-0.6,1.3-0.9,2c-0.2,0.7-0.7,1.3-1.3,1.7c-0.6,0.4-1.4,0.4-2-0.1c-0.7-0.8-0.3-2.1-0.8-3
				c-0.4-0.6-1.1-1-1.8-1.1L391.9,281.5z"/>
			<path class="st0" d="M385.5,286.8c0.4-0.7,1.1-1.2,1.8-1.2c1.1-0.2,3.1,0.6,4.4,1.6c0.4,0.3,0.5,0.9,0.1,1.3
				c-0.1,0.1-0.2,0.2-0.3,0.2l0,0c-0.3,0.2-0.8,0.1-1.1-0.1C389.1,287.4,387.3,286.8,385.5,286.8z"/>
			<path class="st0" d="M382,288.8c0.5-0.7,1.3-1.1,2.2-1.1c1.7,0.1,3.4,0.7,4.8,1.8c0.4,0.3,0.4,0.9,0.1,1.3
				c-0.1,0.1-0.2,0.2-0.3,0.2l0,0c-0.3,0.2-0.7,0.1-1-0.1C386.3,289.3,384.2,288.6,382,288.8z"/>
			<path class="st0" d="M378.1,290.6c0.6-0.6,1.4-1,2.3-1c1.7,0.1,3.3,0.7,4.6,1.8c0.4,0.3,0.4,0.9,0.1,1.3
				c-0.1,0.1-0.2,0.2-0.3,0.2l0,0c-0.3,0.2-0.7,0.1-1-0.1C382.4,291.2,380.3,290.3,378.1,290.6z"/>
			<path class="st3" d="M433,161.6c0.6,19.6,0.6,67,0.6,67c0.2,2.4,1.2,7.4,2,17.2c1.1,12.7-1.2,40.6-1.2,40.6
				c-3.3,1.4-7,1.4-10.2,0.1c0,0-6.1-39.8-8-52.3c-1.7-11-5.1-35.8-5.1-35.8l-3.9,32.2c0.5,5.4,0.4,10.8-0.4,16.1
				c-0.9,5.8-4.9,29.5-4.9,29.5c-3.8,0.9-7.7,0.8-11.4-0.4c0,0-0.4-41.2-0.5-46.5c-0.1-6.1,2.7-72.5,2.7-72.5L433,161.6z"/>
			<path class="st5" d="M411,198.4l-2.9-16.1c0,0-8-0.7-12.5-5.2c0,0,0.8,4.4,10.9,7l2.9,16.3l-2.3,30.2L411,198.4z"/>
		</g>
		<path class="st17" d="M393.7,126.6c0.9-6.3,1.7-14.7,11.4-15.1l12.6,0.6c3.1,0.8,15.1,2.2,15.1,2.2l0.2,27.2
			c0,0,0.8,19.6,0.5,30.1c-9,5.7-28.5,7.6-40.8-1.8C392.4,161.3,392.9,132.8,393.7,126.6z"/>
		<path class="st3" d="M395.4,79.2c-3.4,6-1.3,13.6,4.7,16.9c0.3,0.2,0.5,0.3,0.8,0.4l-2.3,1.6l22.6,2l-0.3,5.4
			c1-0.3,1.9-0.9,2.4-1.8c0.8-1.4,3-10.3,3-10.3c2.1-4.9,3.2-9.9,1.6-11.5c-0.6-0.7-1.4-1.1-2.2-1.3l3-1.5c-0.5-1.2-2-1.8-3.2-1.2
			c0,0-0.1,0-0.1,0c-0.3,0.1-0.5,0.3-0.7,0.5c0.1-0.3,0.1-0.7,0.1-1c0.1-1-0.1-2-0.7-2.8c-0.4-0.6-1-1-1.6-1.4
			c-2.5-1.6-5.5-2.2-8.4-3.2c-1.6-0.6-3.1-1.3-4.7-1.9c-1-0.5-2.2-0.7-3.3-0.6c-1.2,0.2-2,1.3-1.8,2.5c-1.3-1.2-3.1-1.4-4.7-0.7
			c-1.5,0.6-2.4,2.1-2.3,3.7c-1-0.3-2.1-0.1-3.1,0.3c-1,0.5-1.6,1.5-1.5,2.5C393.3,77.2,394.2,78.4,395.4,79.2z"/>
		<path class="st14" d="M411.2,82.4c2.1-0.2,4.1-0.6,6.2-0.9c0.2-0.1,0.4,0,0.5,0.1c0.1,0.1,0.1,0.2,0.2,0.3c1.4,4,1.3,8.2,2.4,12.3
			c0.1,0.4,0.3,1,0.8,1c0.8,0.1,1.4-0.6,1.7-1.2l0.8-1.4c0.2-0.3,0.4-0.5,0.6-0.7c1-0.9,3.8-2,5.2,1.1s-1.5,7.2-3.8,7.8
			c-4,1.1-4.5-1.4-4.5-1.4l-0.8,14.2c-3.5,3.7-15.1,2.4-12.8-0.8l0.1-4.3c-1.8,0.2-3.5,0.3-5.3,0.1c-2.9-0.5-4.6-2.9-5.4-6
			c-1.2-5.1-1.1-11.3-0.1-19c0.1-0.9,0.4-1.8,0.7-2.7C401.7,83,406.6,82.9,411.2,82.4z"/>
		<path class="st16" d="M407.8,108.3c0,0,6.5-1.1,8.8-2.2c1.4-0.7,2.5-1.7,3.2-3c-0.4,1.3-1,2.5-1.9,3.6c-1.7,2.1-10.2,3.3-10.2,3.3
			L407.8,108.3z"/>
		<path class="st5" d="M408.7,92.3c0,0.8,0.6,1.4,1.4,1.4c0.8,0,1.4-0.6,1.4-1.4c0-0.7-0.6-1.4-1.3-1.4
			C409.4,90.9,408.8,91.5,408.7,92.3z"/>
		<path class="st5" d="M410.7,86.6l2.9,1.2c0.3-0.8,0-1.8-0.9-2.1C411.9,85.3,411,85.7,410.7,86.6C410.7,86.5,410.7,86.5,410.7,86.6
			z"/>
		<path class="st18" d="M410.4,99.9l-4.6,1.6c0.4,1.3,1.7,2,2.9,1.6c0,0,0.1,0,0.1,0C410.1,102.6,410.8,101.2,410.4,99.9z"/>
		<path class="st16" d="M408.9,103c0.8-0.3,1.4-0.9,1.6-1.7c-1-0.5-2.2-0.1-2.7,0.9c-0.1,0.3-0.2,0.6-0.2,0.8
			C408,103.2,408.5,103.1,408.9,103z"/>
		<path class="st5" d="M397.2,87.7l2.9-1.1c-0.3-0.8-1.1-1.2-1.9-0.9c0,0-0.1,0-0.1,0C397.3,86,396.9,86.9,397.2,87.7z"/>
		<path class="st5" d="M398.2,92.3c0,0.8,0.6,1.4,1.4,1.4c0.8,0,1.4-0.6,1.4-1.4c0-0.8-0.6-1.4-1.4-1.4
			C398.9,90.9,398.2,91.5,398.2,92.3z"/>
		<path class="st16" d="M405,91.9l-0.2,7.7l-4.3-1.2l4-6.5C404.7,91.8,404.8,91.8,405,91.9z"/>
		<path class="st4" d="M392.2,134.4c0.3-7.9,1-15,3.9-18.7s4.5-4.4,11.6-4.3v0.5c-0.8,0.1-1.5,0.5-2,1.2c-2.4,3.7-4.3,7.7-5.4,12
			c-2,7.7-2.4,25-2.5,34.3s0,16.8,0,16.8s-4.7-1.1-6.1-3.4C391.6,172.6,391.9,142.4,392.2,134.4z"/>
		<path class="st10" d="M392.2,134.4c0.3-7.9,1-15,3.9-18.7s4.5-4.4,11.6-4.3v0.5c-0.8,0.1-1.5,0.5-2,1.2c-2.4,3.7-4.3,7.7-5.4,12
			c-2,7.7-2.4,25-2.5,34.3s0,16.8,0,16.8s-4.7-1.1-6.1-3.4C391.6,172.6,391.9,142.4,392.2,134.4z"/>
		<path class="st4" d="M416.5,121.8c1-4.2,3.1-7,4-9.2l8.8,1.2c3.2,1.5,7.4,5,7.1,8.6l-2.3,26.1l0.6,24.7c-5,7.8-20,6.4-20,6.4
			s-0.4-11.1,0-32.5C415.1,134.9,415.2,127.2,416.5,121.8z"/>
		<path class="st10" d="M416.5,121.8c1-4.2,3.1-7,4-9.2l8.8,1.2c3.2,1.5,7.4,5,7.1,8.6l-2.3,26.1l0.6,24.7c-5,7.8-20,6.4-20,6.4
			s-0.4-11.1,0-32.5C415.1,134.9,415.2,127.2,416.5,121.8z"/>
		<path class="st3" d="M416.1,123.8c0.6-2.7,0.9-7.8,1.4-8.8s3.1-3,3.2-4.4v-0.9c0.8,0.2,1.6,0.6,2.2,1.1c0.8,0.7,3.2,2.4,3.2,2.4
			c-0.2,1.7-0.9,3.3-1.8,4.7c-1.4,2.1-3.4,3.4-3.8,2.9s-0.3-1.3-0.8-2.5c-0.7-1.5-0.8-2.2-1.5-0.7
			C417.7,118.9,416.1,123.8,416.1,123.8z"/>
		<path class="st3" d="M401.1,122.4c-0.7,2.3,1.2-7.9,2.4-9.7s4.3-2.5,4.3-2.5l-0.1,2.2c-0.8,0.2-1.5,0.7-2,1.4
			C403.8,116.4,402.2,119.3,401.1,122.4z"/>
		<path class="st4" d="M415.8,126c6.7,0.7,13.4,1.7,20,3.1l-0.1,0.7c-6.6-1.4-13.3-2.5-20-3.1C415.7,126.5,415.7,126.3,415.8,126z"
			/>
		<path class="st4" d="M392.8,125.9c2.2-0.3,4.7-0.5,7.4-0.6l-0.2,0.8c-2.7,0.1-5.2,0.4-7.3,0.6
			C392.8,126.4,392.8,126.1,392.8,125.9z"/>
		<path class="st14" d="M452.8,148.9c-9.4-23.8-11.4-31.2-18-34c-1.7-0.7-3.6-1.1-5.5-1.2c-1.6,3-4,14.5,3.8,22.5
			c0,0,5.7,14,8.5,20.6c-0.1,6.7,0.4,12.2-1.6,21.2c-0.4,1.2-1.2,2.3-2.3,3c-2.4,1.3-2.8,2.8-4.5,4.5c-1.4,1.3-2.6,1.6-2.4,2.1
			c0.6,1,1.9,1.4,3,1.1c1.3-0.5,2.5-1.2,3.7-1.9c0.2,0.3-2,3.8-4.3,6.4c-3.4,3.8-4.3,6.6,2.6,6.8c4.3,0.2,8.9-3.4,11.8-11.9
			c0.6-1.7,1.2-4.1,1.8-6.5c0.4-1,3.6-17.1,4.2-22C454.5,153.6,454.3,152.8,452.8,148.9z"/>
		<path class="st4" d="M428.1,113.8c2.9-0.4,5.8,0.1,8.3,1.5c3.7,2.2,5,4.2,9.5,14.6s5.4,12.4,5.4,12.4s-2,5.9-13.9,6.6l-5.4-12.2
			c0,0-4.4-5.5-4.9-12.4S428.1,113.8,428.1,113.8z"/>
		<path class="st15" d="M428.1,113.8c2.9-0.4,5.8,0.1,8.3,1.5c3.7,2.2,5,4.2,9.5,14.6s5.4,12.4,5.4,12.4s-2,5.9-13.9,6.6l-5.4-12.2
			c0,0-4.4-5.5-4.9-12.4S428.1,113.8,428.1,113.8z"/>
	</g>
</g>
</svg>
